<mxfile host="app.diagrams.net" modified="2023-10-23T09:18:08.472Z" agent="Mozilla/5.0 (Windows NT 10.0; Win64; x64) AppleWebKit/537.36 (KHTML, like Gecko) Chrome/118.0.0.0 Safari/537.36" etag="RzbNoTrgbn6rffLFnvzG" version="22.0.6" type="device">
  <diagram name="Page-1" id="FoSrOT1r9561mKIMYKIr">
    <mxGraphModel dx="880" dy="468" grid="1" gridSize="10" guides="1" tooltips="1" connect="1" arrows="1" fold="1" page="1" pageScale="1" pageWidth="850" pageHeight="1100" math="0" shadow="0">
      <root>
        <mxCell id="0" />
        <mxCell id="1" parent="0" />
        <mxCell id="GeOHmNpkV2yuDRWa78sU-1" value="Algoritma Deskriftif" style="text;html=1;strokeColor=none;fillColor=none;align=center;verticalAlign=middle;whiteSpace=wrap;rounded=0;fontSize=17;" vertex="1" parent="1">
          <mxGeometry x="80" y="45" width="170" height="30" as="geometry" />
        </mxCell>
        <mxCell id="GeOHmNpkV2yuDRWa78sU-3" value="&lt;h1&gt;&lt;font style=&quot;font-size: 15px;&quot;&gt;Menentukan angka terbesar&lt;/font&gt;&lt;/h1&gt;&lt;p&gt;1. Mulai&lt;br&gt;2. Input angka X&lt;br&gt;3. Input angka Y&lt;br&gt;4. Jika angka &#39;X&#39; lebih besar &amp;gt; angka &#39;Y&#39;&lt;br&gt;5. Cetak &quot;Angka X lebih besar&quot;&lt;br&gt;6. Jika angka &#39;X&#39; lebih kecil &amp;lt; angka &#39;Y&#39;&amp;nbsp;&lt;br&gt;7. Cetak &quot;Angka Y lebih besar&quot;&lt;br&gt;8. Jika angka &#39;X&#39; sama dengan = angka &#39;Y&#39;&lt;br&gt;9. Cetak &quot;Angka X sama dengan Y&quot;&lt;br&gt;10.Selesai&lt;/p&gt;" style="text;html=1;strokeColor=none;fillColor=none;spacing=5;spacingTop=-20;whiteSpace=wrap;overflow=hidden;rounded=0;" vertex="1" parent="1">
          <mxGeometry x="80" y="140" width="380" height="220" as="geometry" />
        </mxCell>
        <mxCell id="GeOHmNpkV2yuDRWa78sU-4" value="&lt;h1&gt;&lt;font style=&quot;font-size: 15px;&quot;&gt;Menentukan angka ganjil atau genap&lt;/font&gt;&lt;/h1&gt;&lt;p&gt;1. Mulai&lt;br&gt;2. Input angka X&lt;br&gt;3. Input angka Y&lt;br&gt;4. Hitung angka &#39;X&#39; % 2 ;&lt;br&gt;5. Jika sisa pembagian&amp;nbsp; habis = 0&lt;br&gt;6. Cetak &quot;Angka Genap&quot;&lt;br&gt;7. Jika sisa pembagian&amp;nbsp; &amp;gt; dari 0&amp;nbsp;&lt;br&gt;8. Cetak &quot;Angka Ganjil&quot;&lt;br&gt;10.Selesai&lt;/p&gt;" style="text;html=1;strokeColor=none;fillColor=none;spacing=5;spacingTop=-20;whiteSpace=wrap;overflow=hidden;rounded=0;" vertex="1" parent="1">
          <mxGeometry x="390" y="140" width="380" height="220" as="geometry" />
        </mxCell>
      </root>
    </mxGraphModel>
  </diagram>
</mxfile>
